<svg viewBox="0 0 500 500" xmlns="http://www.w3.org/2000/svg"><path d="M393.846 295.842H142.401c-5.78 0-10.115-4.336-10.115-10.116 0-5.78 4.335-11.561 10.115-11.561h251.445c5.781 0 10.116 5.781 10.116 11.561s-5.78 10.116-10.116 10.116Z" style="fill:#a76d6f" transform="translate(-18.124 11.962)"/><path d="M330.263 243.818H205.985c-40.462 0-73.699-28.901-73.699-65.028 0-24.567 15.896-47.688 39.017-57.804 7.225-28.902 36.127-50.578 69.364-52.023 14.451-14.451 34.682-21.676 56.359-21.676 40.462 0 73.699 28.901 73.699 65.029 0 4.335 0 7.225-1.445 11.56 21.676 11.561 34.682 33.237 34.682 54.914 0 36.127-33.237 65.028-73.699 65.028ZM243.557 90.639c-27.456 0-49.133 15.896-52.023 39.018 0 2.89-2.89 7.225-7.225 8.67-18.786 5.78-31.792 23.122-31.792 40.463 0 24.566 24.566 44.797 53.468 44.797h124.278c28.901 0 53.468-20.231 53.468-44.797 0-17.341-13.006-33.237-30.347-40.463-5.78-1.445-8.671-7.225-5.78-13.006 1.445-4.335 1.445-8.67 1.445-13.005 0-24.567-23.122-44.798-52.023-44.798-15.896 0-33.237 7.225-43.353 18.786-1.445 2.89-4.335 4.335-7.225 4.335h-2.891Z" style="fill:#666" transform="translate(-18.124 11.962)"/><path d="M208.875 142.662c-7.225 0-10.115-5.78-10.115-11.56 2.89-21.677 24.566-33.237 44.797-33.237h11.561l5.78-7.226c7.226-8.67 21.677-15.896 36.128-15.896 21.676 0 44.797 14.451 44.797 37.573 0 5.78-4.335 10.115-11.56 10.115-5.781 0-10.116-4.335-10.116-10.115 0-10.116-14.451-15.896-23.121-15.896-8.671 0-15.896 2.89-20.232 8.67l-10.115 10.116c-1.445 2.89-4.336 4.335-7.226 4.335l-14.451-1.445h-1.445c-8.67 0-23.121 5.78-23.121 14.451-1.445 5.78-5.78 10.115-11.561 10.115Z" style="fill:#666" transform="translate(-18.124 11.962)"/><g><path d="M343 361H169c-4 0-7-3-7-7s3-8 7-8h174c4 0 7 4 7 8s-4 7-7 7zM343 392H169c-4 0-7-3-7-7 0-5 3-8 7-8h174c4 0 7 3 7 8 0 4-4 7-7 7zM343 423H169c-4 0-7-3-7-8 0-4 3-7 7-7h174c4 0 7 3 7 7 0 5-4 8-7 8z" style="fill:#a76d6f" transform="matrix(1.44509 0 0 1.44509 -119.942 -169.075)"/></g><path d="M429.974 488.038H104.829c-23.121 0-41.907-18.786-41.907-41.907V31.391c0-24.567 18.786-43.353 41.907-43.353h325.145c23.121 0 43.352 18.786 43.352 43.353v414.74c0 23.121-20.231 41.907-43.352 41.907ZM104.829 9.714c-11.561 0-21.676 10.116-21.676 21.677v414.74c0 11.56 10.115 21.676 21.676 21.676h325.145c11.56 0 21.676-10.116 21.676-21.676V31.391c0-11.561-10.116-21.677-21.676-21.677H104.829Z" style="fill:#666" transform="translate(-18.124 11.962)"/></svg>